<?xml version="1.0" encoding="UTF-8"?>
<svg xmlns="http://www.w3.org/2000/svg" xmlns:xlink="http://www.w3.org/1999/xlink" width="512px" height="512px" viewBox="0 0 512 512" version="1.1">
<g id="surface1">
<path style=" stroke:none;fill-rule:nonzero;fill:rgb(0%,55.29412%,96.470588%);fill-opacity:1;" d="M 454.734375 57.457031 C 423.457031 27.542969 379.941406 11.222656 332.347656 4.421875 C 287.46875 -1.015625 256.191406 0.34375 256.191406 0.34375 C 256.191406 0.34375 224.917969 -1.015625 180.039062 4.421875 C 132.445312 11.222656 88.929688 27.542969 57.652344 57.457031 C 27.734375 88.734375 11.417969 132.25 4.617188 179.847656 C -2.183594 224.722656 0.535156 256 0.535156 256 C 0.535156 256 -2.183594 287.277344 4.617188 332.152344 C 11.417969 379.75 27.734375 423.265625 57.652344 454.542969 C 88.929688 484.457031 132.445312 500.777344 180.039062 507.578125 C 224.917969 513.015625 256.191406 511.65625 256.191406 511.65625 C 256.191406 511.65625 287.46875 513.015625 332.347656 507.578125 C 379.941406 500.777344 423.457031 484.457031 454.734375 454.542969 C 484.652344 423.265625 500.96875 379.75 507.769531 332.152344 C 513.210938 287.277344 511.847656 256 511.847656 256 C 511.847656 256 513.210938 224.722656 507.769531 179.847656 C 500.96875 132.25 484.652344 88.734375 454.734375 57.457031 Z M 454.734375 57.457031 "/>
<path style=" stroke:none;fill-rule:evenodd;fill:rgb(100%,100%,100%);fill-opacity:1;" d="M 379.941406 279.117188 C 407.136719 279.117188 428.898438 257.355469 428.898438 230.160156 C 428.898438 202.960938 407.136719 181.203125 379.941406 181.203125 C 352.742188 181.203125 330.984375 202.960938 330.984375 230.160156 L 309.226562 236.960938 C 301.066406 222 287.46875 211.121094 269.792969 207.042969 L 269.792969 183.925781 C 288.828125 177.125 303.789062 159.445312 303.789062 137.6875 C 303.789062 110.492188 282.03125 88.734375 254.832031 88.734375 C 227.636719 88.734375 205.878906 110.492188 205.878906 137.6875 C 205.878906 159.445312 219.476562 178.484375 239.875 183.925781 L 239.875 207.042969 C 222.195312 211.121094 208.597656 222 200.4375 236.960938 L 178.679688 230.160156 L 178.679688 228.800781 C 178.679688 201.601562 156.921875 179.84375 129.726562 179.84375 C 102.527344 179.84375 80.769531 201.601562 80.769531 228.800781 C 80.769531 255.996094 102.527344 277.753906 129.726562 277.753906 C 146.042969 277.753906 159.640625 269.597656 169.160156 258.71875 L 192.277344 266.875 L 192.277344 268.234375 C 192.277344 281.835938 196.359375 292.714844 203.15625 303.59375 L 186.839844 325.351562 C 185.480469 325.351562 180.039062 323.992188 174.601562 323.992188 C 147.402344 323.992188 125.644531 345.75 125.644531 372.945312 C 125.644531 400.144531 147.402344 421.902344 174.601562 421.902344 C 201.796875 421.902344 223.554688 400.144531 223.554688 372.945312 C 223.554688 362.066406 219.476562 351.1875 212.675781 343.03125 L 226.273438 323.992188 C 234.433594 328.070312 243.953125 330.789062 254.832031 330.789062 C 264.351562 330.789062 272.511719 328.070312 280.671875 325.351562 L 295.628906 345.75 C 290.1875 353.910156 287.46875 363.425781 287.46875 372.945312 C 287.46875 400.144531 309.226562 421.902344 336.425781 421.902344 C 363.621094 421.902344 385.378906 400.144531 385.378906 372.945312 C 385.378906 345.75 363.621094 323.992188 336.425781 323.992188 C 330.984375 323.992188 324.1875 325.351562 320.105469 326.710938 L 305.148438 306.3125 C 313.308594 295.433594 317.386719 283.195312 317.386719 269.597656 C 317.386719 268.234375 317.386719 268.234375 317.386719 266.875 L 340.503906 258.71875 C 350.023438 272.316406 363.621094 280.476562 379.941406 279.117188 Z M 379.941406 211.121094 C 390.820312 211.121094 398.980469 219.28125 398.980469 230.160156 C 398.980469 241.039062 390.820312 249.199219 379.941406 249.199219 C 369.0625 249.199219 360.902344 241.039062 360.902344 230.160156 C 360.902344 219.28125 369.0625 211.121094 379.941406 211.121094 Z M 132.445312 250.558594 C 121.566406 250.558594 113.40625 242.398438 113.40625 231.519531 C 113.40625 220.640625 121.566406 212.480469 132.445312 212.480469 C 143.324219 212.480469 151.480469 220.640625 151.480469 231.519531 C 151.480469 242.398438 143.324219 250.558594 132.445312 250.558594 Z M 256.191406 120.011719 C 267.070312 120.011719 275.230469 128.167969 275.230469 139.046875 C 275.230469 149.925781 267.070312 158.085938 256.191406 158.085938 C 245.3125 158.085938 237.152344 149.925781 237.152344 139.046875 C 237.152344 128.167969 245.3125 120.011719 256.191406 120.011719 Z M 174.601562 391.984375 C 163.722656 391.984375 155.5625 383.824219 155.5625 372.945312 C 155.5625 362.066406 163.722656 353.910156 174.601562 353.910156 C 185.480469 353.910156 193.640625 362.066406 193.640625 372.945312 C 193.640625 383.824219 185.480469 391.984375 174.601562 391.984375 Z M 224.914062 269.597656 C 224.914062 253.277344 238.515625 238.320312 256.191406 238.320312 C 272.511719 238.320312 287.46875 251.917969 287.46875 269.597656 C 287.46875 285.914062 273.871094 300.875 256.191406 300.875 C 239.875 299.511719 224.914062 285.914062 224.914062 269.597656 Z M 356.824219 372.945312 C 356.824219 383.824219 348.664062 391.984375 337.785156 391.984375 C 326.90625 391.984375 318.746094 383.824219 318.746094 372.945312 C 318.746094 362.066406 326.90625 353.910156 337.785156 353.910156 C 348.664062 353.910156 356.824219 362.066406 356.824219 372.945312 Z M 356.824219 372.945312 "/>
</g>
</svg>
